<?xml version="1.0" encoding="UTF-8" standalone="no"?>
<!DOCTYPE svg PUBLIC "-//W3C//DTD SVG 1.1//EN" "http://www.w3.org/Graphics/SVG/1.1/DTD/svg11.dtd">
<svg width="100%" height="100%" viewBox="0 0 328 328" version="1.1" xmlns="http://www.w3.org/2000/svg" xmlns:xlink="http://www.w3.org/1999/xlink" xml:space="preserve" xmlns:serif="http://www.serif.com/" style="fill-rule:evenodd;clip-rule:evenodd;stroke-linejoin:round;stroke-miterlimit:2;">
    <g transform="matrix(0.32,0,0,0.32,0,0)">
        <g transform="matrix(1,0,0,1,57.7543,-56.1638)">
            <path d="M115.59,512C115.59,730.784 293.216,908.41 512,908.41L512,1024C229.42,1024 0,794.58 0,512L115.59,512Z" style="fill:rgb(255,191,0);"/>
        </g>
        <g transform="matrix(0.774231,0,0,-0.774231,173.348,852.242)">
            <path d="M115.59,512C115.59,730.784 293.216,908.41 512,908.41L512,1024C229.42,1024 0,794.58 0,512L115.59,512Z" style="fill:rgb(255,191,0);"/>
        </g>
        <g transform="matrix(-0.597816,0,0,-0.597816,875.608,761.918)">
            <path d="M115.59,512C115.59,730.784 293.216,908.41 512,908.41L512,1024C229.42,1024 0,794.58 0,512L115.59,512Z" style="fill:rgb(255,191,0);"/>
        </g>
        <g transform="matrix(-0.463871,0,0,0.463871,807.027,218.068)">
            <path d="M115.59,512C115.59,730.784 293.216,908.41 512,908.41L512,1024C229.42,1024 0,794.58 0,512L115.59,512Z" style="fill:rgb(255,191,0);"/>
        </g>
        <g transform="matrix(0.362415,0,0,0.362415,383.164,270.014)">
            <path d="M115.59,512C115.59,730.784 293.216,908.41 512,908.41L512,1024C229.42,1024 0,794.58 0,512L115.59,512Z" style="fill:rgb(255,191,0);"/>
        </g>
        <g transform="matrix(4.72866e-17,-0.772248,0.772248,4.72866e-17,173.665,851.804)">
            <path d="M115.59,512C115.59,730.784 293.216,908.41 512,908.41L512,1024C229.42,1024 0,794.58 0,512L115.59,512Z" style="fill:rgb(209,145,4);"/>
        </g>
        <g transform="matrix(3.66107e-17,-0.597899,-0.597899,-3.66107e-17,875.181,762.537)">
            <path d="M115.59,512C115.59,730.784 293.216,908.41 512,908.41L512,1024C229.42,1024 0,794.58 0,512L115.59,512Z" style="fill:rgb(209,145,4);"/>
        </g>
        <g transform="matrix(-2.82687e-17,0.461663,-0.461663,-2.82687e-17,805.428,220.218)">
            <path d="M115.59,512C115.59,730.784 293.216,908.41 512,908.41L512,1024C229.42,1024 0,794.58 0,512L115.59,512Z" style="fill:rgb(209,145,4);"/>
        </g>
        <g transform="matrix(-2.19349e-17,0.358223,0.358223,2.19349e-17,385.441,273.179)">
            <path d="M115.59,512C115.59,730.784 293.216,908.41 512,908.41L512,1024C229.42,1024 0,794.58 0,512L115.59,512Z" style="fill:rgb(209,145,4);"/>
        </g>
        <g transform="matrix(1.71374e-17,-0.279874,0.279874,1.71374e-17,425.555,600.507)">
            <path d="M115.59,512C115.59,730.784 293.216,908.41 512,908.41L512,1024C229.42,1024 0,794.58 0,512L115.59,512Z" style="fill:rgb(209,145,4);"/>
        </g>
        <path d="M570.027,547.212C566.825,547.539 563.579,547.706 560.294,547.706C507.978,547.706 465.505,505.233 465.505,452.918C465.505,400.603 507.978,358.13 560.294,358.13C563.579,358.13 566.825,358.297 570.027,358.624L570.027,547.212Z" style="fill:rgb(255,192,0);"/>
        <g transform="matrix(1,0,0,1,52.587,28.6689)">
            <circle cx="507.706" cy="424.249" r="55.348" style="fill:rgb(209,145,4);"/>
        </g>
    </g>
</svg>
